<?xml version="1.0" encoding="utf-8"?>
<!-- Generator: Adobe Illustrator 19.1.0, SVG Export Plug-In . SVG Version: 6.00 Build 0)  -->
<svg version="1.1" id="Layer_1" xmlns="http://www.w3.org/2000/svg" xmlns:xlink="http://www.w3.org/1999/xlink" x="0px" y="0px"
	 viewBox="0 0 144 49.1" style="enable-background:new 0 0 144 49.1;" xml:space="preserve">
<style type="text/css">
	.st0{fill:#2573BA;}
	.st1{fill:url(#SVGID_1_);}
	.st2{fill:#7A8235;}
	.st3{fill:url(#SVGID_2_);}
	.st4{fill:#D67429;}
	.st5{fill:url(#SVGID_3_);}
	.st6{fill:url(#SVGID_4_);}
	.st7{fill:url(#SVGID_5_);}
</style>
<g>
	<path class="st0" d="M32.7,41.9V15.1h10.4c1.8,0,3.2,0.2,4.4,0.5c1.2,0.4,2.2,1.1,3,2.3c0.9,1.2,1.3,2.5,1.3,4.1
		c0,1.5-0.4,2.8-1.3,3.9c-0.9,1.1-2.1,1.8-3.6,2.1c1.9,0.3,3.3,1.1,4.3,2.3c1,1.2,1.5,2.6,1.5,4.3c0,2.1-0.7,3.8-2,5.2
		c-1.4,1.4-3.4,2.1-6.3,2.1H32.7z M37.2,26.4h5.9c1.2,0,2.2-0.4,2.9-1.1c0.7-0.7,1.1-1.6,1.1-2.7c0-1.2-0.4-2.1-1.2-2.7
		C45,19.3,44.1,19,43,19h-5.8V26.4z M37.2,37.9h6.2c1.3,0,2.4-0.3,3.1-1c0.8-0.7,1.1-1.6,1.1-2.8c0-1.1-0.4-2-1.2-2.8
		s-1.8-1.1-3.1-1.1h-6.3V37.9z"/>
	<path class="st0" d="M59.7,19.8h-4.5v-4.7h4.5V19.8z M59.7,41.9h-4.5V22.1h4.5V41.9z"/>
	<path class="st0" d="M71.2,42.4c-2.9,0-5.2-1.1-6.7-3.2c-1.5-2.1-2.3-4.5-2.3-7.2c0-2.9,0.9-5.4,2.6-7.3c1.7-2,4-2.9,6.8-2.9
		c2.7,0,4.8,0.9,6.5,2.8c1.7,1.9,2.6,4.4,2.6,7.4c0,3.1-0.9,5.6-2.7,7.5C76.2,41.4,73.9,42.4,71.2,42.4 M71.4,38.7
		c3,0,4.5-2.2,4.5-6.7c0-2-0.4-3.6-1.1-4.8c-0.7-1.2-1.8-1.8-3.3-1.8c-1.5,0-2.7,0.6-3.4,1.8c-0.7,1.2-1.1,2.8-1.1,4.8
		c0,2.2,0.4,3.8,1.2,4.9C68.9,38.1,70,38.7,71.4,38.7"/>
	<path class="st0" d="M114.9,35.6l4,0.5c-0.5,1.8-1.5,3.3-3.1,4.4c-1.5,1.2-3.4,1.7-5.7,1.7c-2.7,0-5-0.9-6.6-2.8
		c-1.7-1.8-2.5-4.3-2.5-7.5c0-3,0.8-5.5,2.5-7.4c1.7-2,4-2.9,6.9-2.9c2.8,0,5,1,6.6,2.9c1.5,1.9,2.3,4.4,2.3,7.5l0,0.5h-13.6
		c0,1.3,0.1,2.4,0.4,3.2c0.3,0.8,0.8,1.5,1.5,2.1c0.8,0.6,1.7,0.9,2.8,0.9C112.7,38.8,114.1,37.8,114.9,35.6 M114.6,29.7
		c0-1.4-0.4-2.6-1.3-3.5c-0.8-0.9-1.9-1.4-3.1-1.4c-1.2,0-2.3,0.4-3.1,1.3c-0.8,0.8-1.3,2-1.5,3.6H114.6z"/>
	<path class="st0" d="M138.2,41.9h-4.5V29.6c0-1.3-0.3-2.3-0.9-3c-0.6-0.7-1.3-1-2.2-1c-1.2,0-2.2,0.5-3.1,1.5
		c-0.9,1-1.3,2.6-1.3,4.6v10.2h-4.5V22.1h4.1v4.6c1.4-3.3,3.4-5,6-5c1.7,0,3.2,0.5,4.5,1.7c1.2,1.1,1.9,3,1.9,5.8V41.9z"/>
	<path class="st0" d="M99.4,38.7c-1.1-1-2.7-1.6-4.8-1.6h-5.9c-0.9,0-1.6-0.2-2-0.6c-0.4-0.4-0.7-0.9-0.7-1.3c0-0.9,0.5-1.5,1.4-2
		c1.4,0.3,2.6,0.5,3.7,0.5c2.4,0,4.4-0.6,5.9-1.7c1.5-1.2,2.2-2.6,2.2-4.4c0-1.2-0.4-2.3-1.3-3.3l2.9-0.3l-0.6-3.8l-5.4,1.8l0,0
		c-1.3-0.3-2.6-0.4-3.8-0.4c-2.8,0-4.8,0.6-6.2,1.8c-1.4,1.2-2,2.6-2,4.2c0,2,0.9,3.5,2.8,4.6c-2.1,1-3.2,2.4-3.2,4.1
		c0,1.1,0.6,2.2,1.9,3.3c-1.9,0.9-2.9,2.3-2.9,4c0,3.6,3.2,5.4,9.6,5.4c3.4,0,6-0.6,7.7-1.9c1.7-1.2,2.6-2.8,2.6-4.7
		C101.2,41,100.6,39.7,99.4,38.7z M88.3,25.4c0.6-0.6,1.6-0.9,2.8-0.9c1.2,0,2.1,0.3,2.7,0.9c0.6,0.6,0.9,1.3,0.9,2.2
		c0,2.3-1.2,3.5-3.7,3.5c-1.1,0-2-0.3-2.7-0.9c-0.6-0.6-1-1.4-1-2.4C87.3,26.9,87.6,26.1,88.3,25.4z M91.8,46c-2.4,0-4.1-0.3-5.1-1
		c-1.1-0.7-1.6-1.5-1.6-2.4c0-0.6,0.3-1.1,1-1.7c1.2,0.3,2.3,0.5,3.2,0.5H94c0.8,0,1.5,0.2,2.1,0.5c0.6,0.3,0.9,0.8,0.9,1.5
		C97,45.2,95.3,46,91.8,46z"/>
	<g>
		<g>
			<linearGradient id="SVGID_1_" gradientUnits="userSpaceOnUse" x1="22.0012" y1="26.4269" x2="11.5305" y2="17.6409">
				<stop  offset="0" style="stop-color:#C4CA80"/>
				<stop  offset="0.5048" style="stop-color:#DBE08C"/>
			</linearGradient>
			<path class="st1" d="M17.7,17.7c-0.3,0.3-0.6,0.5-0.6,0.5c-4,2.9-9.1,4.4-9.1,4.4s-0.4,0.1-0.8,0.2c2.3,2.3,5.4,3.7,8.9,3.7
				c3,0,5.8-1.1,8-2.9c0,0,0,0,0,0c0.2-0.2,0.4-0.4,0.7-0.6c0.1-0.1,0.2-0.2,0.4-0.3c0.2-0.2,0.3-0.4,0.5-0.5
				c0.1-0.2,0.3-0.3,0.4-0.5c0.1-0.1,0.1-0.2,0.2-0.3C24,22,20.8,20.4,17.7,17.7z"/>
			<path class="st2" d="M4,17.3C4,17.3,4,17.3,4,17.3c0.3,0.9,0.6,1.8,1,2.6C4.6,19,4.2,18.2,4,17.3z"/>
			<path class="st2" d="M7.2,22.8c-0.2-0.2-0.4-0.4-0.5-0.6C6.8,22.4,7,22.6,7.2,22.8z"/>
			<path class="st2" d="M5.7,20.9c-0.2-0.3-0.4-0.6-0.5-0.9C5.3,20.3,5.5,20.6,5.7,20.9z"/>
			<path class="st2" d="M6.4,21.9c-0.2-0.2-0.4-0.5-0.5-0.7C6,21.4,6.2,21.6,6.4,21.9z"/>
			<linearGradient id="SVGID_2_" gradientUnits="userSpaceOnUse" x1="28.9429" y1="18.1065" x2="20.831" y2="11.2998">
				<stop  offset="0" style="stop-color:#9FBC6E"/>
				<stop  offset="0.4025" style="stop-color:#AFCE79"/>
			</linearGradient>
			<path class="st3" d="M28.7,12.3c0-0.1,0-0.3-0.1-0.4c-0.1-0.4-0.1-0.7-0.2-1c0-0.2-0.1-0.3-0.1-0.5C28.2,10,28,9.6,27.9,9.2
				c0-0.1-0.1-0.2-0.1-0.3c-0.2-0.4-0.4-0.9-0.6-1.3c0,0,0-0.1-0.1-0.1c-1.1,2.1-4,4-7.6,5.3c0.2,0.7,0.2,1.6,0,2.4
				c-0.3,1-1.1,1.9-1.7,2.4c3.1,2.7,6.3,4.4,8.6,3.6c0.1-0.1,0.1-0.2,0.2-0.3c0.1-0.1,0.1-0.2,0.2-0.3c0.1-0.2,0.3-0.4,0.4-0.6
				c0.1-0.1,0.2-0.3,0.2-0.4c0.1-0.2,0.2-0.4,0.3-0.6c0.1-0.2,0.2-0.4,0.2-0.5c0.1-0.2,0.1-0.3,0.2-0.5c0.1-0.2,0.1-0.4,0.2-0.6
				c0.1-0.3,0.2-0.6,0.2-0.9c0-0.1,0-0.2,0.1-0.3c0.1-0.3,0.1-0.6,0.1-0.9c0-0.1,0-0.2,0-0.3c0-0.4,0.1-0.8,0.1-1.1
				C28.8,13.3,28.7,12.8,28.7,12.3z"/>
			<path class="st4" d="M12,1.9c0.2-0.1,0.4-0.1,0.6-0.2C12.4,1.7,12.2,1.8,12,1.9z"/>
			<polygon class="st4" points="7.3,4.7 7.3,4.7 7.3,4.7 			"/>
			<linearGradient id="SVGID_3_" gradientUnits="userSpaceOnUse" x1="24.5854" y1="10.8144" x2="13.0745" y2="1.1556">
				<stop  offset="0" style="stop-color:#9EC381"/>
				<stop  offset="0.1607" style="stop-color:#84B16B"/>
				<stop  offset="0.3212" style="stop-color:#71A45A"/>
				<stop  offset="0.4324" style="stop-color:#6A9F54"/>
			</linearGradient>
			<path class="st5" d="M26.7,6.8c0-0.1-0.1-0.1-0.1-0.2c-0.2-0.3-0.4-0.6-0.6-0.8c0,0,0,0,0-0.1c-2.3-2.8-5.8-4.6-9.7-4.6
				c-1.2,0-2.4,0.2-3.5,0.5C13.3,2.4,13.9,3,13.9,3s3.5,4,5.2,8.7c0,0,0,0,0,0.1c0.1,0.2,0.2,0.6,0.3,1.2c3.6-1.4,6.6-3.2,7.6-5.3
				C27,7.3,26.8,7.1,26.7,6.8z"/>
			<path class="st4" d="M7.8,4.3C7.9,4.2,8,4.1,8.2,4C8,4.1,7.9,4.2,7.8,4.3z"/>
			<path class="st4" d="M9.9,2.8c0.2-0.1,0.3-0.2,0.5-0.3C10.3,2.6,10.1,2.7,9.9,2.8z"/>
			<path class="st4" d="M9,3.4c0.1-0.1,0.3-0.2,0.4-0.3C9.3,3.2,9.1,3.3,9,3.4z"/>
			<radialGradient id="SVGID_4_" cx="11.5516" cy="12.2109" r="9.3977" gradientUnits="userSpaceOnUse">
				<stop  offset="0.1571" style="stop-color:#3A5C7B"/>
				<stop  offset="0.8351" style="stop-color:#5B89B4"/>
			</radialGradient>
			<path class="st6" d="M19.5,12.9c-0.1-0.5-0.3-1-0.3-1.2c0-0.1,0-0.1,0-0.1C17.4,7,13.9,3,13.9,3s-0.5-0.6-1.2-1.3c0,0,0,0,0,0
				c0,0-0.1,0-0.1,0c-0.2,0.1-0.4,0.1-0.6,0.2c-0.2,0.1-0.3,0.1-0.5,0.2c-0.2,0.1-0.4,0.1-0.5,0.2c-0.2,0.1-0.3,0.2-0.5,0.2
				c-0.2,0.1-0.3,0.2-0.5,0.3C9.8,2.9,9.6,3,9.4,3.1C9.3,3.2,9.1,3.3,9,3.4C8.7,3.6,8.4,3.8,8.2,4C8,4.1,7.9,4.2,7.8,4.3
				C7.6,4.5,7.5,4.6,7.3,4.7c0,0,0,0,0,0C5,7,3.5,10.2,3.5,13.8c0,1.2,0.2,2.4,0.5,3.5c0.3,0.9,0.6,1.8,1,2.6c0,0,0.1,0.1,0.1,0.1
				c0.2,0.3,0.4,0.6,0.5,0.9c0.1,0.1,0.1,0.2,0.2,0.3c0.2,0.2,0.3,0.5,0.5,0.7c0.1,0.1,0.2,0.2,0.3,0.3c0.2,0.2,0.4,0.4,0.5,0.6
				c0,0,0,0,0,0c0,0,0,0,0,0C7.7,22.6,8,22.5,8,22.5s5.1-1.4,9.1-4.4c0,0,0.2-0.2,0.6-0.5c0.6-0.5,1.4-1.4,1.7-2.4
				C19.7,14.5,19.6,13.6,19.5,12.9z"/>
		</g>
		
			<radialGradient id="SVGID_5_" cx="-319.1007" cy="362.5008" r="0.6285" gradientTransform="matrix(2.5803 -22.7552 -13.4813 -1.4521 5714.5024 -6724.4287)" gradientUnits="userSpaceOnUse">
			<stop  offset="0" style="stop-color:#E6F1F7"/>
			<stop  offset="8.979338e-02" style="stop-color:#D1E3F0"/>
			<stop  offset="0.279" style="stop-color:#ABC8E3"/>
			<stop  offset="0.4672" style="stop-color:#8DB4D8"/>
			<stop  offset="0.652" style="stop-color:#78A5D1"/>
			<stop  offset="0.8316" style="stop-color:#6B9CCC"/>
			<stop  offset="1" style="stop-color:#6799CB"/>
		</radialGradient>
		<path class="st7" d="M8,1.6c0,0-5.8,2.6-7.5,8.4c-1.7,5.8,1.7,11.1,1.7,11.1s5.1-1.4,9.1-4.4c0,0,1.8-1.3,2.3-2.8l0,0c0,0,0,0,0,0
			l0,0c0.5-1.6-0.4-3.6-0.4-3.6C11.5,5.6,8,1.6,8,1.6z"/>
	</g>
</g>
<g>
	<path class="st0" d="M142.1,39.1c0.8,0,1.4,0.6,1.4,1.5c0,0.8-0.7,1.4-1.4,1.4c-0.8,0-1.5-0.7-1.5-1.4
		C140.7,39.7,141.3,39.1,142.1,39.1z M142.1,41.7c0.7,0,1.2-0.5,1.2-1.2c0-0.7-0.5-1.2-1.2-1.2c-0.6,0-1.2,0.5-1.2,1.2
		C140.9,41.2,141.5,41.7,142.1,41.7z M141.8,41.3h-0.3v-1.6h0.7c0.1,0,0.6,0,0.6,0.5c0,0.3-0.2,0.4-0.3,0.4l0.3,0.7h-0.3l-0.3-0.6
		h-0.4V41.3z M141.8,40.4h0.3c0.1,0,0.3,0,0.3-0.2c0-0.1-0.1-0.2-0.3-0.2h-0.4V40.4z"/>
</g>
<g>
</g>
<g>
</g>
<g>
</g>
<g>
</g>
<g>
</g>
<g>
</g>
</svg>
